<svg version="1.1" viewBox="0.0 0.0 960.0 540.0" fill="none" stroke="none" stroke-linecap="square" stroke-miterlimit="10" xmlns:xlink="http://www.w3.org/1999/xlink" xmlns="http://www.w3.org/2000/svg"><clipPath id="gdec85074fd_0_0.0"><path d="m0 0l960.0 0l0 540.0l-960.0 0l0 -540.0z" clip-rule="nonzero"/></clipPath><g clip-path="url(#gdec85074fd_0_0.0)"><path fill="#a6a6a6" d="m0 0l960.0 0l0 540.0l-960.0 0z" fill-rule="evenodd"/><g filter="url(#shadowFilter-gdec85074fd_0_0.1)"><use xlink:href="#gdec85074fd_0_0.1" transform="matrix(1.0 0.0 0.0 1.0 0.0 2.0)"/></g><defs><filter id="shadowFilter-gdec85074fd_0_0.1" filterUnits="userSpaceOnUse"><feGaussianBlur in="SourceAlpha" stdDeviation="2.0" result="blur"/><feComponentTransfer in="blur" color-interpolation-filters="sRGB"><feFuncR type="linear" slope="0" intercept="0.0"/><feFuncG type="linear" slope="0" intercept="0.0"/><feFuncB type="linear" slope="0" intercept="0.0"/><feFuncA type="linear" slope="0.5" intercept="0"/></feComponentTransfer></filter></defs><g id="gdec85074fd_0_0.1"><path fill="#f5f5f5" d="m98.96982 195.26247l205.03937 0l0 139.52757l-205.03937 0z" fill-rule="evenodd"/><path fill="#37474f" d="m156.94951 274.01938l0 -1.9375q0.890625 0 1.4375 -0.125q0.546875 -0.125 0.84375 -0.4375q0.3125 -0.3125 0.421875 -0.890625q0.125 -0.59375 0.125 -1.5l0 -15.0l2.6875 0l0 15.046875q0 1.671875 -0.359375 2.75q-0.359375 1.0625 -1.28125 1.578125q-0.90625 0.515625 -2.578125 0.515625l-1.296875 0zm10.848984 -0.265625q-0.828125 0 -1.453125 -0.46875q-0.609375 -0.46875 -0.96875 -1.1875q-0.359375 -0.734375 -0.359375 -1.5625q0 -1.28125 0.421875 -2.171875q0.4375 -0.890625 1.1875 -1.5q0.765625 -0.609375 1.75 -1.0625q1.0 -0.46875 2.109375 -0.890625l0 -0.984375q0 -0.84375 -0.109375 -1.390625q-0.09375 -0.5625 -0.390625 -0.828125q-0.296875 -0.28125 -0.890625 -0.28125q-0.53125 0 -0.859375 0.25q-0.328125 0.234375 -0.46875 0.671875q-0.140625 0.4375 -0.140625 1.046875l0 0.6875l-2.546875 -0.09375q0.046875 -2.296875 1.046875 -3.390625q1.015625 -1.09375 3.125 -1.09375q2.0625 0 2.921875 1.125q0.875 1.125 0.875 3.265625l0 6.328125q0 0.65625 0.03125 1.265625q0.046875 0.59375 0.09375 1.109375q0.0625 0.515625 0.109375 0.96875l-2.34375 0q-0.078125 -0.390625 -0.1875 -0.96875q-0.109375 -0.59375 -0.15625 -1.078125q-0.234375 0.828125 -0.921875 1.53125q-0.6875 0.703125 -1.875 0.703125zm1.0 -2.203125q0.390625 0 0.71875 -0.21875q0.34375 -0.21875 0.609375 -0.484375q0.265625 -0.28125 0.359375 -0.453125l0 -3.9375q-0.609375 0.34375 -1.140625 0.6875q-0.515625 0.328125 -0.921875 0.703125q-0.390625 0.359375 -0.625 0.828125q-0.21875 0.46875 -0.21875 1.078125q0 0.84375 0.3125 1.328125q0.3125 0.46875 0.90625 0.46875zm8.5208435 2.015625l-2.734375 -13.875l2.59375 0l1.703125 11.15625l1.734375 -11.15625l2.484375 0l-2.640625 13.875l-3.140625 0zm9.9431 0.1875q-0.828125 0 -1.453125 -0.46875q-0.609375 -0.46875 -0.96875 -1.1875q-0.359375 -0.734375 -0.359375 -1.5625q0 -1.28125 0.421875 -2.171875q0.4375 -0.890625 1.1875 -1.5q0.765625 -0.609375 1.75 -1.0625q1.0 -0.46875 2.109375 -0.890625l0 -0.984375q0 -0.84375 -0.109375 -1.390625q-0.09375 -0.5625 -0.390625 -0.828125q-0.296875 -0.28125 -0.890625 -0.28125q-0.53125 0 -0.859375 0.25q-0.328125 0.234375 -0.46875 0.671875q-0.140625 0.4375 -0.140625 1.046875l0 0.6875l-2.546875 -0.09375q0.046875 -2.296875 1.046875 -3.390625q1.015625 -1.09375 3.125 -1.09375q2.0625 0 2.921875 1.125q0.875 1.125 0.875 3.265625l0 6.328125q0 0.65625 0.03125 1.265625q0.046875 0.59375 0.09375 1.109375q0.0625 0.515625 0.109375 0.96875l-2.34375 0q-0.078125 -0.390625 -0.1875 -0.96875q-0.109375 -0.59375 -0.15625 -1.078125q-0.234375 0.828125 -0.921875 1.53125q-0.6875 0.703125 -1.875 0.703125zm1.0 -2.203125q0.390625 0 0.71875 -0.21875q0.34375 -0.21875 0.609375 -0.484375q0.265625 -0.28125 0.359375 -0.453125l0 -3.9375q-0.609375 0.34375 -1.140625 0.6875q-0.515625 0.328125 -0.921875 0.703125q-0.390625 0.359375 -0.625 0.828125q-0.21875 0.46875 -0.21875 1.078125q0 0.84375 0.3125 1.328125q0.3125 0.46875 0.90625 0.46875zm11.5208435 2.234375q-1.671875 0 -2.796875 -0.71875q-1.109375 -0.71875 -1.6875 -1.984375q-0.578125 -1.28125 -0.671875 -2.96875l2.40625 -0.640625q0.0625 1.03125 0.3125 2.0q0.25 0.953125 0.828125 1.5625q0.578125 0.609375 1.609375 0.609375q1.0625 0 1.59375 -0.578125q0.546875 -0.59375 0.546875 -1.703125q0 -1.3125 -0.609375 -2.109375q-0.59375 -0.8125 -1.5 -1.625l-3.265625 -2.890625q-0.96875 -0.828125 -1.421875 -1.828125q-0.453125 -1.0 -0.453125 -2.46875q0 -2.125 1.21875 -3.296875q1.234375 -1.1875 3.34375 -1.1875q1.15625 0 2.03125 0.296875q0.875 0.296875 1.453125 0.921875q0.59375 0.625 0.9375 1.578125q0.34375 0.953125 0.46875 2.21875l-2.296875 0.625q-0.078125 -0.953125 -0.296875 -1.75q-0.21875 -0.8125 -0.765625 -1.296875q-0.53125 -0.5 -1.53125 -0.5q-1.015625 0 -1.578125 0.546875q-0.5625 0.53125 -0.5625 1.578125q0 0.890625 0.296875 1.46875q0.3125 0.578125 0.984375 1.171875l3.28125 2.890625q1.109375 0.953125 1.9375 2.296875q0.84375 1.328125 0.84375 3.140625q0 1.453125 -0.609375 2.5q-0.59375 1.03125 -1.640625 1.59375q-1.03125 0.546875 -2.40625 0.546875zm10.351959 -0.03125q-1.703125 0 -2.59375 -0.671875q-0.875 -0.6875 -1.171875 -1.9375q-0.296875 -1.25 -0.296875 -2.90625l0 -3.1875q0 -1.75 0.3125 -2.984375q0.3125 -1.25 1.1875 -1.90625q0.875 -0.65625 2.5625 -0.65625q1.5 0 2.328125 0.5q0.828125 0.484375 1.140625 1.453125q0.3125 0.96875 0.3125 2.40625l0 0.828125l-2.328125 0l0 -0.84375q0 -0.90625 -0.125 -1.4375q-0.109375 -0.53125 -0.421875 -0.765625q-0.3125 -0.25 -0.890625 -0.25q-0.625 0 -0.96875 0.296875q-0.328125 0.28125 -0.4375 0.96875q-0.109375 0.6875 -0.109375 1.859375l0 4.359375q0 1.78125 0.328125 2.390625q0.34375 0.59375 1.21875 0.59375q0.640625 0 0.9375 -0.296875q0.3125 -0.296875 0.390625 -0.84375q0.078125 -0.5625 0.078125 -1.265625l0 -1.125l2.328125 0l0 0.96875q0 1.390625 -0.328125 2.40625q-0.3125 1.0 -1.140625 1.53125q-0.828125 0.515625 -2.3125 0.515625zm6.145218 -0.1875l0 -13.875l2.5625 0l0 1.96875q0.765625 -1.265625 1.53125 -1.703125q0.765625 -0.4375 1.546875 -0.4375q0.09375 0 0.171875 0q0.078125 0 0.234375 0.03125l0 2.828125q-0.296875 -0.109375 -0.671875 -0.1875q-0.359375 -0.09375 -0.75 -0.09375q-0.59375 0 -1.09375 0.28125q-0.484375 0.265625 -0.96875 1.0625l0 10.125l-2.5625 0zm7.7977295 0l0 -13.875l2.5625 0l0 13.875l-2.5625 0zm0 -15.9375l0 -2.6875l2.5625 0l0 2.6875l-2.5625 0zm5.324112 20.5l0 -18.4375l2.5625 0l0 1.109375q0.453125 -0.53125 1.09375 -0.90625q0.65625 -0.390625 1.546875 -0.390625q1.078125 0 1.71875 0.5625q0.640625 0.5625 0.953125 1.421875q0.3125 0.84375 0.40625 1.71875q0.09375 0.875 0.09375 1.5l0 3.359375q0 1.46875 -0.296875 2.78125q-0.28125 1.296875 -1.046875 2.109375q-0.75 0.796875 -2.109375 0.796875q-0.75 0 -1.328125 -0.359375q-0.578125 -0.375 -1.03125 -0.859375l0 5.59375l-2.5625 0zm4.421875 -6.390625q0.671875 0 0.953125 -0.484375q0.28125 -0.5 0.359375 -1.328125q0.078125 -0.84375 0.078125 -1.859375l0 -3.359375q0 -0.859375 -0.109375 -1.59375q-0.09375 -0.734375 -0.40625 -1.15625q-0.3125 -0.4375 -0.984375 -0.4375q-0.5 0 -0.953125 0.21875q-0.453125 0.21875 -0.796875 0.5l0 8.875q0.359375 0.265625 0.8125 0.453125q0.46875 0.171875 1.046875 0.171875zm9.969589 2.015625q-1.078125 0 -1.734375 -0.40625q-0.65625 -0.40625 -0.96875 -1.140625q-0.296875 -0.75 -0.296875 -1.765625l0 -9.046875l-1.453125 0l0 -1.703125l1.453125 0l0 -4.046875l2.578125 0l0 4.046875l2.234375 0l0 1.703125l-2.234375 0l0 8.890625q0 0.8125 0.265625 1.15625q0.265625 0.34375 1.0 0.34375q0.203125 0 0.453125 -0.015625q0.25 -0.03125 0.484375 -0.046875l0 1.890625q-0.484375 0.078125 -0.890625 0.109375q-0.40625 0.03125 -0.890625 0.03125z" fill-rule="nonzero"/></g><g filter="url(#shadowFilter-gdec85074fd_0_0.2)"><use xlink:href="#gdec85074fd_0_0.2" transform="matrix(1.0 0.0 0.0 1.0 0.0 2.0)"/></g><defs><filter id="shadowFilter-gdec85074fd_0_0.2" filterUnits="userSpaceOnUse"><feGaussianBlur in="SourceAlpha" stdDeviation="2.0" result="blur"/><feComponentTransfer in="blur" color-interpolation-filters="sRGB"><feFuncR type="linear" slope="0" intercept="0.0"/><feFuncG type="linear" slope="0" intercept="0.0"/><feFuncB type="linear" slope="0" intercept="0.0"/><feFuncA type="linear" slope="0.5" intercept="0"/></feComponentTransfer></filter></defs><g id="gdec85074fd_0_0.2"><path fill="#f5f5f5" d="m655.9908 195.26247l205.03943 0l0 139.52757l-205.03943 0z" fill-rule="evenodd"/><path fill="#37474f" d="m744.32367 259.06625l4.125 -19.4375l2.625 0l4.15625 19.4375l-2.578125 0l-0.890625 -4.890625l-3.953125 0l-0.9375 4.890625l-2.546875 0zm3.84375 -6.84375l3.234375 0l-1.625 -8.75l-1.609375 8.75zm9.026733 6.84375l0 -19.4375l4.828125 0q1.75 0 2.78125 0.640625q1.046875 0.625 1.53125 1.828125q0.484375 1.203125 0.484375 2.90625q0 1.53125 -0.546875 2.671875q-0.53125 1.125 -1.59375 1.734375q-1.0625 0.609375 -2.640625 0.609375l-2.140625 0l0 9.046875l-2.703125 0zm2.703125 -10.984375l1.25 0q1.171875 0 1.84375 -0.265625q0.671875 -0.265625 0.953125 -0.921875q0.296875 -0.671875 0.296875 -1.875q0 -1.390625 -0.203125 -2.125q-0.203125 -0.75 -0.859375 -1.03125q-0.640625 -0.296875 -2.0 -0.296875l-1.28125 0l0 6.515625zm8.9574585 10.984375l0 -19.4375l2.65625 0l0 19.4375l-2.65625 0z" fill-rule="nonzero"/><path fill="#37474f" d="m692.5105 273.81625q1.03125 -2.15625 3.46875 -4.40625l1.03125 0.9375q-2.34375 2.15625 -3.28125 4.125q-1.03125 2.15625 -1.03125 5.15625q0 2.53125 1.03125 4.78125q0.9375 2.0625 3.28125 4.59375l-1.03125 1.03125q-2.34375 -2.625 -3.46875 -4.96875q-1.21875 -2.53125 -1.21875 -5.4375q0 -3.28125 1.21875 -5.8125zm8.8125 13.875q3.09375 -1.96875 5.4375 -6.1875q-1.875 -1.6875 -3.09375 -2.4375q-0.65625 1.59375 -1.78125 2.90625l-1.6875 -1.21875q3.09375 -3.84375 4.03125 -10.3125l1.96875 0.5625q0.46875 0.375 -0.1875 0.65625l-0.375 1.78125l3.5625 0l0.375 -0.375l1.3125 1.125q0.28125 0.28125 -0.1875 0.5625q-1.40625 9.9375 -8.15625 14.625l-1.21875 -1.6875zm18.84375 -3.9375q-2.71875 -1.875 -4.03125 -3.09375l0 9.09375l-1.875 0l0 -10.96875q-1.78125 -2.25 -3.1875 -4.6875l1.5 -1.125q0.84375 1.5 1.6875 2.625l0 -6.46875l1.78125 0q0.75 0.09375 0.09375 0.5625l0 8.0625q0.65625 1.3125 5.4375 4.125l-1.40625 1.875zm-12.65625 -4.125q0.84375 -2.15625 1.21875 -4.40625l-3.5625 0l-0.75 2.0625q1.21875 0.75 3.09375 2.34375zm33.75 7.5l-0.375 -2.0625l1.5 0q1.3125 0 1.03125 -2.15625q-0.375 -2.625 -2.34375 -4.59375l1.6875 -6.28125l-3.09375 0l0 18.1875l-1.875 0l0 -19.96875l5.53125 0l0.1875 -0.28125l1.6875 1.40625l-0.375 0.28125l-2.0625 6.28125q2.8125 3.09375 2.71875 5.53125q-0.09375 3.65625 -2.53125 3.65625l-1.6875 0zm-15.09375 -6.46875l8.90625 0l0 8.53125l-1.875 0l0 -1.03125l-5.15625 0l0 1.5l-1.875 0l0 -9.0zm1.875 1.78125l0 3.9375l5.15625 0l0 -3.9375l-5.15625 0zm1.59375 -13.78125l2.0625 0q0.9375 0.1875 0.09375 0.75l0 2.0625l4.40625 0l0 1.78125l-1.3125 0l-1.3125 3.9375l3.5625 0l0 1.78125l-12.84375 0l0 -1.78125l3.5625 0l-1.125 -3.9375l-1.21875 0l0 -1.78125l4.125 0l0 -2.8125zm3.09375 4.59375l-3.84375 0l0.9375 3.9375l1.78125 0l1.125 -3.9375zm31.21875 2.34375l5.53125 0l0 2.0625l-5.4375 0l0 1.78125q0 7.03125 -7.40625 10.03125l-1.5 -1.6875q6.75 -2.25 6.75 -8.15625l0 -1.96875l-6.1875 0l0.09375 4.78125l-2.0625 0l-0.09375 -4.78125l-5.25 0l0 -2.0625l5.25 0l-0.09375 -4.96875l1.96875 0q0.9375 0.09375 0.09375 0.9375l0.09375 4.03125l6.09375 0l0 -5.71875l2.0625 0q0.9375 0.09375 0.09375 0.9375l0 4.78125zm8.15625 4.78125l0 -2.0625l20.90625 0l0 2.0625l-20.90625 0zm38.0625 -6.9375q4.6875 5.90625 6.65625 12.46875l-2.53125 0.84375q-2.34375 -7.40625 -6.09375 -11.8125l1.96875 -1.5zm-7.125 2.15625q0.75 0.46875 -0.1875 0.84375q-1.6875 5.90625 -5.4375 10.78125l-2.15625 -1.40625q4.125 -4.96875 5.53125 -11.25l2.25 1.03125zm11.25 -7.3125q1.21875 1.03125 3.0 2.90625l-1.21875 1.125q-1.6875 -1.875 -3.0 -3.0l1.21875 -1.03125zm-2.25 1.40625q1.40625 1.3125 3.0 3.1875l-1.40625 1.03125q-1.40625 -1.875 -2.90625 -3.1875l1.3125 -1.03125zm12.375 15.375q-1.125 2.34375 -3.46875 4.96875l-1.03125 -1.03125q2.34375 -2.53125 3.28125 -4.59375q1.03125 -2.25 1.03125 -4.78125q0 -3.0 -1.03125 -5.15625q-0.9375 -1.96875 -3.28125 -4.125l1.03125 -0.9375q2.4375 2.25 3.46875 4.40625q1.21875 2.53125 1.21875 5.8125q0 2.90625 -1.21875 5.4375z" fill-rule="nonzero"/></g><g filter="url(#shadowFilter-gdec85074fd_0_0.3)"><use xlink:href="#gdec85074fd_0_0.3" transform="matrix(1.0 0.0 0.0 1.0 0.0 2.0)"/></g><defs><filter id="shadowFilter-gdec85074fd_0_0.3" filterUnits="userSpaceOnUse"><feGaussianBlur in="SourceAlpha" stdDeviation="2.0" result="blur"/><feComponentTransfer in="blur" color-interpolation-filters="sRGB"><feFuncR type="linear" slope="0" intercept="0.0"/><feFuncG type="linear" slope="0" intercept="0.0"/><feFuncB type="linear" slope="0" intercept="0.0"/><feFuncA type="linear" slope="0.5" intercept="0"/></feComponentTransfer></filter></defs><g id="gdec85074fd_0_0.3"><path fill="#f5f5f5" d="m335.29266 218.26772l259.90552 0l0 -14.755905l29.51178 29.51181l-29.51178 29.51181l0 -14.755905l-259.90552 0z" fill-rule="evenodd"/><path fill="#37474f" d="m403.60297 233.41237q0 5.5625 -5.1875 8.015625l-1.484375 -1.265625q4.890625 -2.21875 4.96875 -6.828125l0 -7.421875l1.5625 0q0.734375 0.15625 0.140625 0.59375l0 6.90625zm-7.640625 1.625l-1.703125 0l0 -8.375l1.625 0q0.75 0.0625 0.078125 0.59375l0 7.78125zm24.128906 -5.265625q-1.421875 8.09375 -9.28125 11.578125l-1.34375 -1.40625q7.28125 -2.96875 8.765625 -10.25l-5.9375 0q-1.703125 2.828125 -3.5625 4.53125l-1.484375 -0.96875q3.859375 -3.484375 4.96875 -8.15625l1.703125 0.59375q0.453125 0.21875 -0.140625 0.4375q-0.296875 0.96875 -0.8125 1.9375l5.34375 0l0.65625 -0.375l1.34375 1.34375q0.515625 0.515625 -0.21875 0.734375zm17.289062 7.046875l0 1.640625l-14.765625 0l0 -1.640625l6.453125 0l0 -7.34375l-5.203125 0l0 -1.625l12.03125 0l0 1.625l-5.125 0l0 7.34375l6.609375 0zm11.136719 -3.625q3.1875 2.4375 6.296875 5.640625l-1.484375 1.265625q-3.109375 -3.28125 -6.0 -5.5q-2.90625 3.109375 -6.609375 5.5625l-1.40625 -1.265625q7.859375 -5.109375 10.09375 -10.234375l-8.09375 0.515625l-0.21875 -1.78125l8.609375 -0.375l0.890625 -0.21875l1.1875 1.1875q0.515625 0.515625 -0.296875 0.671875q-1.421875 2.453125 -2.96875 4.53125zm11.269531 -2.15625q3.6406555 1.03125 7.3594055 2.8125l-0.890625 1.71875q-3.9375305 -2.015625 -6.4687805 -2.671875l0 7.71875l-1.703125 0l0 -14.84375l1.484375 0q0.890625 0.0625 0.21875 0.59375l0 4.671875zm12.617218 -2.375q0.828125 -1.703125 2.75 -3.484375l0.8125 0.734375q-1.84375 1.703125 -2.59375 3.265625q-0.8125 1.703125 -0.8125 4.078125q0 2.015625 0.8125 3.796875q0.75 1.625 2.59375 3.640625l-0.8125 0.8125q-1.859375 -2.078125 -2.75 -3.9375q-0.953125 -2.0 -0.953125 -4.3125q0 -2.59375 0.953125 -4.59375z" fill-rule="nonzero"/><path fill="#37474f" d="m478.59128 239.94362l0 -15.109375l2.0 0l0 5.453125q0.53125 -0.53125 1.203125 -0.90625q0.671875 -0.375 1.5 -0.375q0.640625 0 0.984375 0.34375q0.34375 0.328125 0.484375 0.84375q0.140625 0.5 0.140625 1.015625l0 8.734375l-2.0 0l0 -8.15625q0 -0.578125 -0.171875 -0.890625q-0.171875 -0.3125 -0.6875 -0.3125q-0.359375 0 -0.75 0.203125q-0.375 0.203125 -0.703125 0.5l0 8.65625l-2.0 0zm11.114532 0.15625q-0.828125 0 -1.34375 -0.3125q-0.515625 -0.328125 -0.75 -0.90625q-0.234375 -0.578125 -0.234375 -1.359375l0 -7.03125l-1.140625 0l0 -1.328125l1.140625 0l0 -3.15625l2.0 0l0 3.15625l1.734375 0l0 1.328125l-1.734375 0l0 6.890625q0 0.640625 0.203125 0.921875q0.203125 0.265625 0.78125 0.265625q0.15625 0 0.34375 -0.015625q0.203125 -0.03125 0.390625 -0.046875l0 1.46875q-0.375 0.0625 -0.703125 0.09375q-0.3125 0.03125 -0.6875 0.03125zm5.7461243 0q-0.828125 0 -1.34375 -0.3125q-0.515625 -0.328125 -0.75 -0.90625q-0.234375 -0.578125 -0.234375 -1.359375l0 -7.03125l-1.140625 0l0 -1.328125l1.140625 0l0 -3.15625l2.0 0l0 3.15625l1.734375 0l0 1.328125l-1.734375 0l0 6.890625q0 0.640625 0.203125 0.921875q0.203125 0.265625 0.78125 0.265625q0.15625 0 0.34375 -0.015625q0.203125 -0.03125 0.390625 -0.046875l0 1.46875q-0.375 0.0625 -0.703125 0.09375q-0.3125 0.03125 -0.6875 0.03125zm2.8711243 3.390625l0 -14.328125l2.0 0l0 0.859375q0.359375 -0.40625 0.859375 -0.703125q0.5 -0.3125 1.203125 -0.3125q0.828125 0 1.328125 0.4375q0.5 0.4375 0.734375 1.109375q0.25 0.65625 0.3125 1.34375q0.078125 0.671875 0.078125 1.15625l0 2.625q0 1.125 -0.21875 2.15625q-0.21875 1.015625 -0.8125 1.640625q-0.59375 0.625 -1.65625 0.625q-0.578125 0 -1.03125 -0.28125q-0.4375 -0.296875 -0.796875 -0.671875l0 4.34375l-2.0 0zm3.4375 -4.96875q0.53125 0 0.75 -0.375q0.21875 -0.390625 0.265625 -1.03125q0.0625 -0.65625 0.0625 -1.4375l0 -2.625q0 -0.671875 -0.078125 -1.234375q-0.0625 -0.5625 -0.3125 -0.890625q-0.234375 -0.34375 -0.765625 -0.34375q-0.390625 0 -0.75 0.171875q-0.34375 0.15625 -0.609375 0.375l0 6.90625q0.28125 0.203125 0.640625 0.34375q0.359375 0.140625 0.796875 0.140625z" fill-rule="nonzero"/><path fill="#37474f" d="m514.175 241.28737q-2.296875 0 -4.21875 -1.796875q-0.890625 1.046875 -2.75 2.09375l-0.59375 -1.859375q0.8125 -0.234375 2.515625 -1.34375l0 -4.828125l-2.296875 0l0 -1.40625l3.78125 0l0 6.15625q1.484375 1.34375 3.859375 1.34375l9.203125 0l-0.296875 1.640625l-9.203125 0zm1.046875 -14.40625q1.859375 0.4375 2.375 0.671875l1.40625 -1.046875l-6.828125 0l0 -1.40625l8.46875 0l0.359375 -0.21875l1.125 0.8125q0.4375 0.375 -0.375 0.4375l-2.890625 1.9375l0.953125 0.4375l-0.890625 0.890625l3.34375 0l0 8.46875q0 1.03125 -1.03125 1.03125l-1.640625 0l-0.078125 -1.40625l0.96875 0q0.296875 0 0.296875 -0.296875l0 -1.40625l-2.8125 0l0 2.890625l-1.484375 0l0 -2.890625l-2.671875 0l0 3.1875l-1.484375 0l0 -9.578125l5.484375 0q-3.109375 -1.25 -3.703125 -1.40625l1.109375 -1.109375zm2.75 3.703125l0 1.421875l2.8125 0l0 -1.421875l-2.8125 0zm-4.15625 0l0 1.421875l2.671875 0l0 -1.421875l-2.671875 0zm2.671875 2.609375l-2.671875 0l0 1.40625l2.671875 0l0 -1.40625zm4.296875 0l-2.8125 0l0 1.40625l2.8125 0l0 -1.40625zm-12.09375 -8.25q2.0 1.265625 2.75 2.453125l-1.265625 1.34375q-1.1875 -1.484375 -2.53125 -2.53125l1.046875 -1.265625zm16.703125 8.015625q2.8125 -3.328125 3.328125 -8.234375l1.71875 0.453125q0.296875 0.296875 -0.234375 0.4375q-0.359375 2.15625 -0.953125 3.859375q0.8125 0.078125 0.140625 0.515625l0 11.59375l-1.484375 0l0 -9.359375q-0.515625 1.03125 -1.40625 2.078125l-1.109375 -1.34375zm14.390625 4.15625l-6.609375 0l0 2.15625l6.609375 0l0 -2.15625zm-8.09375 -1.40625l9.578125 0l0 5.640625l-1.484375 0l0 -0.65625l-6.609375 0l0 0.890625l-1.484375 0l0 -5.875zm0.453125 -1.265625l0 -1.40625l8.390625 0l0 1.40625l-8.390625 0zm0 -2.59375l0 -1.40625l8.390625 0l0 1.40625l-8.390625 0zm-1.703125 -3.9375l11.9375 0l0 1.421875l-11.9375 0l0 -1.421875zm1.703125 -2.671875l8.390625 0l0 1.421875l-8.390625 0l0 -1.421875zm16.546875 12.328125q-0.890625 1.859375 -2.75 3.9375l-0.8125 -0.8125q1.859375 -2.015625 2.59375 -3.640625q0.828125 -1.78125 0.828125 -3.796875q0 -2.375 -0.828125 -4.078125q-0.734375 -1.5625 -2.59375 -3.265625l0.8125 -0.734375q1.9375 1.78125 2.75 3.484375q0.96875 2.0 0.96875 4.59375q0 2.3125 -0.96875 4.3125z" fill-rule="nonzero"/></g><g filter="url(#shadowFilter-gdec85074fd_0_0.4)"><use xlink:href="#gdec85074fd_0_0.4" transform="matrix(1.0 0.0 0.0 1.0 0.0 2.0)"/></g><defs><filter id="shadowFilter-gdec85074fd_0_0.4" filterUnits="userSpaceOnUse"><feGaussianBlur in="SourceAlpha" stdDeviation="2.0" result="blur"/><feComponentTransfer in="blur" color-interpolation-filters="sRGB"><feFuncR type="linear" slope="0" intercept="0.0"/><feFuncG type="linear" slope="0" intercept="0.0"/><feFuncB type="linear" slope="0" intercept="0.0"/><feFuncA type="linear" slope="0.5" intercept="0"/></feComponentTransfer></filter></defs><g id="gdec85074fd_0_0.4"><path fill="#f5f5f5" d="m624.7087 286.4252l-259.90552 0l0 -14.75592l-29.51181 29.51181l29.51181 29.51181l0 -14.75589l259.90552 0z" fill-rule="evenodd"/><path fill="#37474f" d="m406.26773 306.39798q6.828125 -1.265625 9.9375 -6.90625l1.265625 1.265625q-3.5625 6.234375 -11.875 7.640625l-1.1875 -0.890625l0.15625 -0.453125l0 -12.3125l1.625 0q0.671875 0.078125 0.078125 0.515625l0 11.140625zm22.195312 -5.046875q3.1875 2.4375 6.296875 5.640625l-1.484375 1.265625q-3.109375 -3.28125 -6.0 -5.5q-2.90625 3.109375 -6.609375 5.5625l-1.40625 -1.265625q7.859375 -5.109375 10.09375 -10.234375l-8.09375 0.515625l-0.21875 -1.78125l8.609375 -0.375l0.890625 -0.21875l1.1875 1.1875q0.515625 0.515625 -0.296875 0.671875q-1.421875 2.453125 -2.96875 4.53125zm22.628906 -5.71875q0.59375 0 0.96875 -0.375q0.375 -0.375 0.375 -0.96875q0 -0.59375 -0.375 -0.953125q-0.375 -0.375 -0.96875 -0.375q-0.59375 0 -0.96875 0.375q-0.359375 0.359375 -0.359375 0.953125q0 0.59375 0.359375 0.96875q0.375 0.375 0.96875 0.375zm0 0.734375q-0.890625 0 -1.484375 -0.59375q-0.59375 -0.59375 -0.59375 -1.484375q0 -0.890625 0.59375 -1.484375q0.59375 -0.59375 1.484375 -0.59375q0.890625 0 1.484375 0.59375q0.59375 0.59375 0.59375 1.484375q0 0.890625 -0.59375 1.484375q-0.59375 0.59375 -1.484375 0.59375zm-2.515625 4.15625q2.671875 2.828125 4.0 5.203125l-1.625 1.109375q-1.5625 -2.75 -3.796875 -5.125l1.421875 -1.1875zm-3.5625 -3.1875l6.828125 0l0 1.640625l-6.828125 0l0 10.3125l-1.71875 0l0 -10.3125l-6.671875 0l0 -1.640625l6.671875 0l0 -4.15625l1.5625 0q0.8125 0.15625 0.15625 0.59375l0 3.5625zm-3.9375 4.078125q0.4375 0.375 -0.296875 0.53125q-1.109375 2.4375 -2.828125 5.109375l-1.625 -0.890625q1.859375 -2.671875 3.109375 -5.640625l1.640625 0.890625zm28.125 -1.921875q-3.9375 8.15625 -13.203125 8.609375q-0.375 0.96875 -0.75 0.15625l-0.59375 -1.9375q9.65625 -0.21875 12.984375 -7.9375l1.5625 1.109375zm-10.46875 0q-2.0 -1.859375 -3.78125 -3.046875l1.265625 -1.5625q1.5625 0.96875 3.9375 3.203125l-1.421875 1.40625zm21.386719 1.859375q3.1875 2.4375 6.296875 5.640625l-1.484375 1.265625q-3.109375 -3.28125 -6.0 -5.5q-2.90625 3.109375 -6.609375 5.5625l-1.40625 -1.265625q7.859375 -5.109375 10.09375 -10.234375l-8.09375 0.515625l-0.21875 -1.78125l8.609375 -0.375l0.890625 -0.21875l1.1875 1.1875q0.515625 0.515625 -0.296875 0.671875q-1.421875 2.453125 -2.96875 4.53125zm11.566406 -4.53125q0.828125 -1.703125 2.75 -3.484375l0.8125 0.734375q-1.84375 1.703125 -2.59375 3.265625q-0.8125 1.703125 -0.8125 4.078125q0 2.015625 0.8125 3.796875q0.75 1.625 2.59375 3.640625l-0.8125 0.8125q-1.859375 -2.078125 -2.75 -3.9375q-0.953125 -2.0 -0.953125 -4.3125q0 -2.59375 0.953125 -4.59375z" fill-rule="nonzero"/><path fill="#37474f" d="m497.8732 308.1011l0 -15.109375l2.0 0l0 5.453125q0.53125 -0.53125 1.203125 -0.90625q0.671875 -0.375 1.5 -0.375q0.640625 0 0.984375 0.34375q0.34375 0.328125 0.484375 0.84375q0.140625 0.5 0.140625 1.015625l0 8.734375l-2.0 0l0 -8.15625q0 -0.578125 -0.171875 -0.890625q-0.171875 -0.3125 -0.6875 -0.3125q-0.359375 0 -0.75 0.203125q-0.375 0.203125 -0.703125 0.5l0 8.65625l-2.0 0zm11.114532 0.15625q-0.828125 0 -1.34375 -0.3125q-0.515625 -0.328125 -0.75 -0.90625q-0.234375 -0.578125 -0.234375 -1.359375l0 -7.03125l-1.140625 0l0 -1.328125l1.140625 0l0 -3.15625l2.0 0l0 3.15625l1.734375 0l0 1.328125l-1.734375 0l0 6.890625q0 0.640625 0.203125 0.921875q0.203125 0.265625 0.78125 0.265625q0.15625 0 0.34375 -0.015625q0.203125 -0.03125 0.390625 -0.046875l0 1.46875q-0.375 0.0625 -0.703125 0.09375q-0.3125 0.03125 -0.6875 0.03125zm5.746155 0q-0.828125 0 -1.34375 -0.3125q-0.515625 -0.328125 -0.75 -0.90625q-0.234375 -0.578125 -0.234375 -1.359375l0 -7.03125l-1.1406555 0l0 -1.328125l1.1406555 0l0 -3.15625l2.0 0l0 3.15625l1.734375 0l0 1.328125l-1.734375 0l0 6.890625q0 0.640625 0.203125 0.921875q0.203125 0.265625 0.78125 0.265625q0.15625 0 0.34375 -0.015625q0.203125 -0.03125 0.390625 -0.046875l0 1.46875q-0.375 0.0625 -0.703125 0.09375q-0.3125 0.03125 -0.6875 0.03125zm2.8710938 3.390625l0 -14.328125l2.0 0l0 0.859375q0.359375 -0.40625 0.859375 -0.703125q0.5 -0.3125 1.203125 -0.3125q0.828125 0 1.328125 0.4375q0.5 0.4375 0.734375 1.109375q0.25 0.65625 0.3125 1.34375q0.078125 0.671875 0.078125 1.15625l0 2.625q0 1.125 -0.21875 2.15625q-0.21875 1.015625 -0.8125 1.640625q-0.59375 0.625 -1.65625 0.625q-0.578125 0 -1.03125 -0.28125q-0.4375 -0.296875 -0.796875 -0.671875l0 4.34375l-2.0 0zm3.4375 -4.96875q0.53125 0 0.75 -0.375q0.21875 -0.390625 0.265625 -1.03125q0.0625 -0.65625 0.0625 -1.4375l0 -2.625q0 -0.671875 -0.078125 -1.234375q-0.0625 -0.5625 -0.3125 -0.890625q-0.234375 -0.34375 -0.765625 -0.34375q-0.390625 0 -0.75 0.171875q-0.34375 0.15625 -0.609375 0.375l0 6.90625q0.28125 0.203125 0.640625 0.34375q0.359375 0.140625 0.796875 0.140625z" fill-rule="nonzero"/><path fill="#37474f" d="m533.4569 309.44485q-2.296875 0 -4.21875 -1.796875q-0.890625 1.046875 -2.75 2.09375l-0.59375 -1.859375q0.8125 -0.234375 2.515625 -1.34375l0 -4.828125l-2.296875 0l0 -1.40625l3.78125 0l0 6.15625q1.484375 1.34375 3.859375 1.34375l9.203125 0l-0.296875 1.640625l-9.203125 0zm1.046875 -14.40625q1.859375 0.4375 2.375 0.671875l1.40625 -1.046875l-6.828125 0l0 -1.40625l8.46875 0l0.359375 -0.21875l1.125 0.8125q0.4375 0.375 -0.375 0.4375l-2.890625 1.9375l0.953125 0.4375l-0.890625 0.890625l3.34375 0l0 8.46875q0 1.03125 -1.03125 1.03125l-1.640625 0l-0.078125 -1.40625l0.96875 0q0.296875 0 0.296875 -0.296875l0 -1.40625l-2.8125 0l0 2.890625l-1.484375 0l0 -2.890625l-2.671875 0l0 3.1875l-1.484375 0l0 -9.578125l5.484375 0q-3.109375 -1.25 -3.703125 -1.40625l1.109375 -1.109375zm2.75 3.703125l0 1.421875l2.8125 0l0 -1.421875l-2.8125 0zm-4.15625 0l0 1.421875l2.671875 0l0 -1.421875l-2.671875 0zm2.671875 2.609375l-2.671875 0l0 1.40625l2.671875 0l0 -1.40625zm4.296875 0l-2.8125 0l0 1.40625l2.8125 0l0 -1.40625zm-12.09375 -8.25q2.0 1.265625 2.75 2.453125l-1.265625 1.34375q-1.1875 -1.484375 -2.53125 -2.53125l1.046875 -1.265625zm16.703125 8.015625q2.8125 -3.328125 3.328125 -8.234375l1.71875 0.453125q0.296875 0.296875 -0.234375 0.4375q-0.359375 2.15625 -0.953125 3.859375q0.8125 0.078125 0.140625 0.515625l0 11.59375l-1.484375 0l0 -9.359375q-0.515625 1.03125 -1.40625 2.078125l-1.109375 -1.34375zm14.390625 4.15625l-6.609375 0l0 2.15625l6.609375 0l0 -2.15625zm-8.09375 -1.40625l9.578125 0l0 5.640625l-1.484375 0l0 -0.65625l-6.609375 0l0 0.890625l-1.484375 0l0 -5.875zm0.453125 -1.265625l0 -1.40625l8.390625 0l0 1.40625l-8.390625 0zm0 -2.59375l0 -1.40625l8.390625 0l0 1.40625l-8.390625 0zm-1.703125 -3.9375l11.9375 0l0 1.421875l-11.9375 0l0 -1.421875zm1.703125 -2.671875l8.390625 0l0 1.421875l-8.390625 0l0 -1.421875zm16.546875 12.328125q-0.890625 1.859375 -2.75 3.9375l-0.8125 -0.8125q1.859375 -2.015625 2.59375 -3.640625q0.828125 -1.78125 0.828125 -3.796875q0 -2.375 -0.828125 -4.078125q-0.734375 -1.5625 -2.59375 -3.265625l0.8125 -0.734375q1.9375 1.78125 2.75 3.484375q0.96875 2.0 0.96875 4.59375q0 2.3125 -0.96875 4.3125z" fill-rule="nonzero"/></g><path fill="#000000" fill-opacity="0.0" d="m327.46457 152.48819l273.0709 0l0 59.02362l-273.0709 0z" fill-rule="evenodd"/><path fill="#f5f5f5" d="m337.38644 174.53319l0 -1.5l4.15625 0l0 1.5l-4.15625 0z" fill-rule="nonzero"/><path fill="#f5f5f5" d="m352.36612 179.03319q-2.296875 0 -3.1875 -0.890625q-0.890625 -0.890625 -0.890625 -2.375q0 -0.8125 0.296875 -1.921875l1.703125 0.21875q-0.375 1.1875 -0.375 1.703125q0 0.671875 0.453125 1.109375q0.515625 0.53125 2.078125 0.53125l8.09375 0l0 1.625l-8.171875 0zm-2.96875 -12.546875l9.65625 0l0 1.640625l-9.65625 0l0 -1.640625zm16.40625 12.921875q3.046875 -0.671875 4.75 -2.375q1.40625 -1.40625 1.40625 -3.34375q0 -1.328125 -0.734375 -2.078125q-0.671875 -0.671875 -1.71875 -0.59375q-2.078125 0.21875 -5.9375 1.484375l-0.8125 -1.921875q2.828125 -0.53125 5.265625 -1.125q1.265625 -0.296875 1.9375 -0.296875q1.625 0 2.671875 1.046875q1.1875 1.1875 1.1875 3.40625q0 2.90625 -2.0 4.90625q-1.78125 1.78125 -4.828125 2.59375l-1.1875 -1.703125zm6.15625 -12.171875q-2.96875 -0.296875 -7.203125 -1.1875l0.453125 -1.859375q4.15625 0.96875 7.125 1.265625l-0.375 1.78125zm11.652344 8.453125q-0.671875 1.71875 -1.40625 2.609375q-1.046875 1.265625 -2.078125 1.265625q-1.859375 0 -2.75 -2.15625q-0.515625 -1.265625 -0.515625 -5.421875q0 -2.96875 0.296875 -6.015625l1.5625 0.375q0.890625 0.21875 0.0625 0.734375q-0.296875 2.75 -0.296875 4.984375q0 3.03125 0.375 4.296875q0.375 1.265625 1.109375 1.265625q0.828125 0 1.421875 -1.1875q0.359375 -0.75 0.734375 -1.78125l1.484375 1.03125zm4.375 -8.671875q3.34375 3.484375 4.09375 8.453125l-2.015625 0.515625q-0.890625 -5.1875 -3.625 -8.078125l1.546875 -0.890625zm9.2109375 12.390625q3.046875 -0.671875 4.75 -2.375q1.40625 -1.40625 1.40625 -3.34375q0 -1.328125 -0.734375 -2.078125q-0.671875 -0.671875 -1.71875 -0.59375q-2.078125 0.21875 -5.9375 1.484375l-0.8125 -1.921875q2.828125 -0.53125 5.265625 -1.125q1.265625 -0.296875 1.9375 -0.296875q1.625 0 2.671875 1.046875q1.1875 1.1875 1.1875 3.40625q0 2.90625 -2.0 4.90625q-1.78125 1.78125 -4.828125 2.59375l-1.1875 -1.703125zm6.15625 -12.171875q-2.96875 -0.296875 -7.203125 -1.1875l0.453125 -1.859375q4.15625 0.96875 7.125 1.265625l-0.375 1.78125zm9.574219 -0.15625q0.515625 0.75 0.8125 2.15625l-1.25 0.59375q-0.296875 -1.328125 -0.671875 -2.078125l1.109375 -0.671875zm-3.34375 1.34375q-0.140625 2.59375 -0.65625 4.96875l-1.484375 -0.296875q0.59375 -2.890625 0.65625 -5.34375l1.421875 0.21875q0.65625 0.15625 0.0625 0.453125zm2.015625 12.6875l-1.484375 0l0 -17.140625l1.40625 0q0.734375 0.140625 0.078125 0.59375l0 16.546875zm12.609375 -15.4375l0 1.1875l-4.53125 0l0 0.96875l3.640625 0l0 1.1875l-3.640625 0l0 1.03125l5.046875 0l0 1.1875l-11.34375 0l0 -1.1875l4.8125 0l0 -1.03125l-3.625 0l0 -1.1875l3.625 0l0 -0.96875l-4.453125 0l0 -1.1875l4.453125 0l0 -1.78125l1.421875 0q0.59375 0.078125 0.0625 0.453125l0 1.328125l4.53125 0zm-1.109375 6.53125l0 7.796875q0 0.96875 -1.046875 0.96875l-1.25 0l-0.453125 -1.40625l0.96875 0q0.296875 0 0.296875 -0.3125l0 -1.40625l-5.125 0l0 3.34375l-1.484375 0l0 -8.984375l8.09375 0zm-1.484375 1.1875l-5.125 0l0 1.046875l5.125 0l0 -1.046875zm0 2.234375l-5.125 0l0 1.03125l5.125 0l0 -1.03125zm20.921875 -7.203125q0 1.265625 -1.1875 1.265625l-1.703125 0l-0.296875 -1.421875l1.484375 0q0.21875 0 0.21875 -0.21875l0 -1.703125l-3.859375 0l0 4.375l4.75 0l0.234375 -0.296875l1.1875 0.75q0.296875 0.296875 -0.234375 0.359375q-0.4375 3.046875 -1.78125 5.640625q0.890625 1.265625 2.609375 2.3125l-0.890625 1.40625q-1.421875 -0.96875 -2.53125 -2.375q-1.109375 1.5625 -2.375 2.53125l-0.890625 -1.421875q1.265625 -0.96875 2.296875 -2.296875q-1.1875 -2.234375 -1.703125 -5.203125l-0.671875 0l0 8.921875l-1.484375 0l0 -16.109375l6.828125 0l0 3.484375zm-8.015625 -0.8125l-2.671875 0l0 1.703125l3.421875 0l0 1.40625l-1.265625 0l-1.03125 2.15625l1.921875 0l0 1.40625l-3.046875 0l0 1.703125l3.046875 0l0 1.421875l-3.046875 0l0 3.703125l-1.484375 0l0 -3.703125l-3.265625 0l0 -1.421875l3.265625 0l0 -1.703125l-3.265625 0l0 -1.40625l2.078125 0l-0.953125 -2.15625l-1.640625 0l0 -1.40625l3.78125 0l0 -1.703125l-2.8125 0l0 -1.421875l2.8125 0l0 -2.140625l1.421875 0q0.59375 0.0625 0.0625 0.4375l0 1.703125l2.671875 0l0 1.421875zm-3.859375 5.265625l0.96875 0l0.8125 -2.15625l-2.671875 0l0.890625 2.15625zm8.46875 -0.75q0.21875 1.78125 1.328125 3.859375q0.890625 -1.78125 1.1875 -3.859375l-2.515625 0zm20.109375 6.828125q-3.40625 -1.921875 -5.484375 -2.4375q-0.078125 1.921875 -0.890625 2.734375q-1.125 1.125 -3.203125 1.125q-1.78125 0 -2.671875 -0.890625q-0.8125 -0.828125 -0.8125 -1.9375q0 -1.109375 0.96875 -2.078125q0.890625 -0.890625 2.96875 -0.890625q1.328125 0 2.15625 0.15625q-0.234375 -4.015625 -0.59375 -9.796875l1.484375 0q0.65625 0.140625 0.140625 0.59375q0 1.1875 0.15625 3.625q2.0 0.078125 5.640625 -0.4375l0 1.5625q-2.609375 0.359375 -5.5 0.4375q0.15625 2.234375 0.15625 4.234375q2.8125 0.671875 6.234375 2.453125l-0.75 1.546875zm-7.046875 -2.8125q-1.109375 -0.21875 -2.0 -0.21875q-1.484375 0 -2.078125 0.59375q-0.53125 0.515625 -0.53125 1.03125q0 0.515625 0.375 0.890625q0.515625 0.515625 1.78125 0.515625q1.1875 0 1.703125 -0.515625q0.75 -0.734375 0.75 -2.296875zm14.542969 2.890625q-2.296875 0 -3.1875 -0.890625q-0.890625 -0.890625 -0.890625 -2.375q0 -0.8125 0.296875 -1.921875l1.703125 0.21875q-0.375 1.1875 -0.375 1.703125q0 0.671875 0.453125 1.109375q0.515625 0.53125 2.078125 0.53125l8.09375 0l0 1.625l-8.171875 0zm-2.96875 -12.546875l9.65625 0l0 1.640625l-9.65625 0l0 -1.640625zm25.984375 7.421875q0 2.078125 -2.015625 2.078125l-2.4375 0l-0.296875 -1.625l2.515625 0q0.75 0 0.75 -0.75l0 -2.375l-5.578125 0.375l0 5.421875q0 1.328125 1.421875 1.328125l7.265625 0l-0.296875 1.640625l-7.046875 0q-2.828125 0 -2.828125 -2.828125l0 -5.40625l-3.703125 0.296875l-0.21875 -1.5625l3.921875 -0.21875l0 -3.796875l1.34375 0q0.734375 0.15625 0.140625 0.59375l0 3.125l5.578125 -0.375l0 -4.375l1.328125 0q0.75 0.140625 0.15625 0.59375l0 3.703125l4.0 -0.21875l0.15625 1.5625l-4.15625 0.078125l0 2.734375zm13.796875 -7.421875l2.375 0l-0.375 8.09375l-1.625 0l-0.375 -8.09375zm0.15625 10.546875l2.078125 0l0 2.15625l-2.078125 0l0 -2.15625z" fill-rule="nonzero"/><path fill="#f5f5f5" d="m337.38644 196.53319l0 -1.5l4.15625 0l0 1.5l-4.15625 0z" fill-rule="nonzero"/><path fill="#f5f5f5" d="m352.36612 201.03319q-2.296875 0 -3.1875 -0.890625q-0.890625 -0.890625 -0.890625 -2.375q0 -0.8125 0.296875 -1.921875l1.703125 0.21875q-0.375 1.1875 -0.375 1.703125q0 0.671875 0.453125 1.109375q0.515625 0.53125 2.078125 0.53125l8.09375 0l0 1.625l-8.171875 0zm-2.96875 -12.546875l9.65625 0l0 1.640625l-9.65625 0l0 -1.640625zm16.40625 12.921875q3.046875 -0.671875 4.75 -2.375q1.40625 -1.40625 1.40625 -3.34375q0 -1.328125 -0.734375 -2.078125q-0.671875 -0.671875 -1.71875 -0.59375q-2.078125 0.21875 -5.9375 1.484375l-0.8125 -1.921875q2.828125 -0.53125 5.265625 -1.125q1.265625 -0.296875 1.9375 -0.296875q1.625 0 2.671875 1.046875q1.1875 1.1875 1.1875 3.40625q0 2.90625 -2.0 4.90625q-1.78125 1.78125 -4.828125 2.59375l-1.1875 -1.703125zm6.15625 -12.171875q-2.96875 -0.296875 -7.203125 -1.1875l0.453125 -1.859375q4.15625 0.96875 7.125 1.265625l-0.375 1.78125zm11.652344 8.453125q-0.671875 1.71875 -1.40625 2.609375q-1.046875 1.265625 -2.078125 1.265625q-1.859375 0 -2.75 -2.15625q-0.515625 -1.265625 -0.515625 -5.421875q0 -2.96875 0.296875 -6.015625l1.5625 0.375q0.890625 0.21875 0.0625 0.734375q-0.296875 2.75 -0.296875 4.984375q0 3.03125 0.375 4.296875q0.375 1.265625 1.109375 1.265625q0.828125 0 1.421875 -1.1875q0.359375 -0.75 0.734375 -1.78125l1.484375 1.03125zm4.375 -8.671875q3.34375 3.484375 4.09375 8.453125l-2.015625 0.515625q-0.890625 -5.1875 -3.625 -8.078125l1.546875 -0.890625zm9.2109375 12.390625q3.046875 -0.671875 4.75 -2.375q1.40625 -1.40625 1.40625 -3.34375q0 -1.328125 -0.734375 -2.078125q-0.671875 -0.671875 -1.71875 -0.59375q-2.078125 0.21875 -5.9375 1.484375l-0.8125 -1.921875q2.828125 -0.53125 5.265625 -1.125q1.265625 -0.296875 1.9375 -0.296875q1.625 0 2.671875 1.046875q1.1875 1.1875 1.1875 3.40625q0 2.90625 -2.0 4.90625q-1.78125 1.78125 -4.828125 2.59375l-1.1875 -1.703125zm6.15625 -12.171875q-2.96875 -0.296875 -7.203125 -1.1875l0.453125 -1.859375q4.15625 0.96875 7.125 1.265625l-0.375 1.78125zm4.2304688 6.671875q2.375 -3.265625 3.125 -9.71875l1.625 0.296875q0.296875 0.296875 -0.21875 0.375l-0.21875 1.265625l3.484375 0l0 1.40625q-0.21875 4.671875 -1.859375 8.15625q1.5625 2.828125 4.828125 2.828125l6.234375 0l-0.296875 1.640625l-5.9375 0q-3.5625 0 -5.5 -3.046875q-1.84375 2.671875 -3.484375 3.859375l-0.96875 -1.40625q2.015625 -1.34375 3.5625 -4.015625q-0.890625 -1.9375 -1.40625 -4.078125q-0.890625 2.140625 -1.859375 3.625l-1.109375 -1.1875zm3.78125 -5.046875q0.375 3.125 1.265625 5.203125q1.109375 -2.671875 1.265625 -6.53125l-2.296875 0l-0.234375 1.328125zm11.359375 6.390625q0.375 0 0.453125 -2.078125l1.40625 0.375q0 3.109375 -1.40625 3.109375l-1.265625 0q-1.265625 0 -1.265625 -1.328125l0 -8.3125l-2.453125 0l0 5.859375q0 2.453125 -1.78125 4.671875l-1.1875 -1.265625q1.484375 -1.25 1.484375 -4.078125l0 -6.609375l5.421875 0l0 9.359375q0 0.296875 0.21875 0.296875l0.375 0zm10.3125 1.265625q-2.890625 1.03125 -5.40625 1.703125q-0.234375 0.59375 -0.453125 0.21875l-0.515625 -1.703125l2.59375 -0.515625l0 -4.09375l-2.0 0l0 -1.40625l2.0 0l0 -3.9375l-2.21875 0l0 -1.40625l5.9375 0l0 1.40625l-2.234375 0l0 3.9375l2.0 0l0 1.40625l-2.0 0l0 3.71875q0.59375 -0.078125 2.15625 -0.59375l0.140625 1.265625zm5.875 -3.5l0 2.15625l4.15625 0l0 1.40625l-4.15625 0l0 2.3125l4.890625 0l0 1.40625l-11.796875 0l0 -1.40625l5.640625 0l0 -2.3125l-4.015625 0l0 -1.40625l4.015625 0l0 -2.15625l-2.671875 0l0 0.96875l-1.265625 0l0 -9.125l9.203125 0l0 8.828125l-1.265625 0l0 -0.671875l-2.734375 0zm2.734375 -3.40625l-2.734375 0l0 2.21875l2.734375 0l0 -2.21875zm0 -3.5625l-2.734375 0l0 2.375l2.734375 0l0 -2.375zm-4.0 2.375l0 -2.375l-2.671875 0l0 2.375l2.671875 0zm0 1.1875l-2.671875 0l0 2.21875l2.671875 0l0 -2.21875zm12.90625 1.1875q0.890625 -0.296875 1.71875 -0.296875q0.953125 0 1.546875 0.59375q0.453125 0.4375 0.53125 1.625q2.21875 -0.8125 5.046875 -1.703125l0.515625 1.78125q-2.890625 0.453125 -5.421875 1.40625l0 3.265625l-1.484375 0l0 -2.671875q-2.21875 1.046875 -2.890625 1.71875q-0.8125 0.8125 -0.8125 1.625q0 0.453125 0.4375 0.890625q0.515625 0.53125 2.0 0.53125l6.234375 0l0 1.40625l-6.296875 0q-2.375 0 -3.34375 -0.96875q-0.75 -0.75 -0.75 -1.859375q0 -1.1875 0.96875 -2.15625q1.484375 -1.484375 4.375 -2.671875q-0.0625 -0.890625 -0.359375 -1.1875q-0.296875 -0.296875 -1.265625 -0.296875q-1.484375 0 -4.53125 2.671875l-1.265625 -1.25q3.5 -2.15625 4.75 -4.75q-2.078125 0.140625 -4.15625 0.296875l-0.296875 -1.484375q2.671875 -0.078125 5.046875 -0.234375q0.375 -0.890625 0.890625 -2.96875l1.421875 0.375q0.734375 0.296875 0 0.59375q-0.296875 0.96875 -0.671875 1.9375q2.671875 -0.234375 5.125 -0.59375l0.21875 1.546875q-2.890625 0.234375 -5.796875 0.453125q-0.734375 1.484375 -1.484375 2.375zm24.207031 5.9375q-3.203125 3.484375 -6.90625 3.484375q-2.671875 0 -3.9375 -1.265625q-0.96875 -0.953125 -0.96875 -3.703125l0 -9.953125l1.5625 0q0.671875 0.15625 0.15625 0.59375l0 9.359375q0 1.859375 0.65625 2.515625q0.828125 0.828125 2.453125 0.828125q2.890625 0 5.859375 -3.265625l1.125 1.40625zm16.765625 -8.984375q-2.59375 0 -4.078125 0.515625q-1.640625 0.59375 -3.046875 2.015625q-1.40625 1.40625 -1.40625 3.625q0 1.78125 1.109375 2.90625q1.484375 1.484375 5.71875 1.625l-0.59375 1.640625q-4.375 -0.21875 -6.09375 -1.9375q-1.703125 -1.703125 -1.703125 -4.15625q0 -3.484375 2.75 -5.484375q-3.484375 0.515625 -7.125 1.03125l-0.453125 -1.703125q7.28125 -0.515625 14.625 -1.78125l0.296875 1.703125zm17.441406 8.6875q0.96875 0.4375 1.9375 1.03125l-1.046875 1.5625q-0.671875 -0.59375 -1.40625 -1.03125q-0.96875 2.15625 -3.5625 2.15625q-1.78125 0 -2.53125 -0.75q-0.734375 -0.75 -0.734375 -1.78125q0 -0.96875 0.671875 -1.640625q0.8125 -0.8125 2.140625 -0.8125q1.484375 0 2.96875 0.59375q0.15625 -0.890625 0.15625 -2.296875q0 -2.453125 -0.671875 -3.125q-0.515625 -0.515625 -1.5625 -0.515625q-2.8125 0 -6.375 3.265625l0 7.578125l-1.484375 0l0 -6.09375q-1.40625 1.78125 -2.828125 3.484375l-1.1875 -1.03125q2.609375 -2.59375 4.015625 -5.34375l0 -1.109375l-3.484375 0.8125l-0.296875 -1.5625l3.78125 -0.671875l0 -4.75l1.328125 0q0.828125 0.15625 0.15625 0.59375l0 3.265625l1.1875 0.828125l-1.1875 1.546875l0 0.671875q3.484375 -2.96875 6.53125 -2.96875q1.78125 0 2.75 0.96875q0.953125 0.96875 0.953125 4.234375q0 1.703125 -0.21875 2.890625zm-1.78125 0.734375q-1.703125 -0.734375 -2.375 -0.734375q-1.03125 0 -1.484375 0.4375q-0.375 0.375 -0.375 0.828125q0 0.4375 0.296875 0.734375q0.453125 0.453125 1.34375 0.453125q1.859375 0 2.59375 -1.71875zm12.7656555 -10.6875l2.375 0l-0.375 8.09375l-1.625 0l-0.375 -8.09375zm0.15625 10.546875l2.078125 0l0 2.15625l-2.078125 0l0 -2.15625z" fill-rule="nonzero"/><path fill="#000000" fill-opacity="0.0" d="m407.46457 328.4882l273.0709 0l0 59.02362l-273.0709 0z" fill-rule="evenodd"/><path fill="#f5f5f5" d="m417.38644 350.53317l0 -1.5l4.15625 0l0 1.5l-4.15625 0z" fill-rule="nonzero"/><path fill="#f5f5f5" d="m435.25674 347.9863l-7.421875 0l0 -1.640625l15.21875 0l0 1.640625l-6.078125 0l0 0.96875q0 4.671875 -3.34375 7.71875l-1.484375 -1.109375q3.109375 -2.453125 3.109375 -6.609375l0 -0.96875zm-4.75 -4.53125l0 -1.625l9.140625 0l0 1.625l-9.140625 0zm10.09375 -3.046875q0.96875 0.96875 2.078125 2.609375l-1.03125 0.734375q-1.046875 -1.484375 -2.078125 -2.671875l1.03125 -0.671875zm1.78125 -0.953125q0.96875 1.03125 2.078125 2.515625l-1.03125 0.75q-1.1875 -1.640625 -2.078125 -2.53125l1.03125 -0.734375zm3.4921875 9.859375l0 -1.625l16.546875 0l0 1.625l-16.546875 0zm24.648438 -7.71875q-0.296875 0.890625 -0.75 1.71875l4.96875 0l0.828125 -0.296875l0.953125 0.953125q0.296875 0.375 -0.296875 0.59375q-0.59375 2.96875 -1.78125 5.421875l1.78125 1.1875l-1.109375 1.640625l-1.625 -1.1875q-2.15625 3.109375 -6.171875 5.125l-1.703125 -1.265625q4.453125 -1.859375 6.390625 -4.90625q-1.859375 -1.1875 -3.640625 -2.15625l0.890625 -1.328125q2.296875 1.03125 3.78125 1.921875q1.109375 -2.296875 1.34375 -4.078125l-5.421875 0q-1.40625 2.53125 -3.484375 4.609375l-1.421875 -0.96875q3.796875 -3.9375 4.984375 -8.3125l1.78125 0.734375q0.59375 0.296875 -0.296875 0.59375zm17.515625 3.34375q-1.265625 7.421875 -3.046875 9.203125q-0.96875 0.96875 -2.0 0.96875q-1.1875 0 -1.859375 -0.671875q-1.78125 -1.78125 -1.78125 -4.453125q0 -3.265625 2.296875 -5.5625q2.53125 -2.53125 6.15625 -2.53125q3.265625 0 5.125 1.859375q2.078125 2.078125 2.078125 4.90625q0 3.03125 -1.921875 4.96875q-1.265625 1.265625 -3.859375 2.453125l-1.5625 -1.5625q2.59375 -0.8125 4.078125 -2.296875q1.40625 -1.421875 1.40625 -3.421875q0 -2.375 -1.546875 -3.9375q-1.5625 -1.546875 -4.90625 -1.40625l1.34375 0.671875q0.890625 0.375 0 0.8125zm-1.71875 -1.40625q-1.921875 0.4375 -3.328125 1.859375q-1.9375 1.921875 -1.9375 4.75q0 1.703125 1.109375 2.8125q0.234375 0.21875 0.671875 0.21875q0.453125 0 0.96875 -0.515625q1.703125 -1.703125 2.515625 -9.125zm14.703125 0.734375q-0.96875 -1.484375 -2.234375 -2.4375l1.1875 -1.125q1.640625 1.1875 2.234375 2.375l-1.1875 1.1875zm-3.34375 11.140625l2.53125 -1.484375l0 -4.96875l-2.375 0l0 -1.421875l3.859375 0l0 6.015625q1.703125 1.703125 4.0 1.703125l9.2031555 0l-0.375 1.421875l-9.0469055 0q-2.453125 0 -4.53125 -2.015625l-2.453125 2.453125l-0.8125 -1.703125zm16.25003 -6.53125l-5.0469055 0l-0.0625 0.671875q2.96875 1.328125 4.8125305 3.03125l-1.03125 1.640625q-2.4531555 -2.53125 -4.3125305 -3.34375q-1.03125 1.9375 -4.21875 3.78125l-0.890625 -1.546875q3.859375 -1.9375 4.21875 -4.234375l-4.671875 0l0 -1.40625l4.75 0l0 -2.453125l-4.15625 0l0 -1.40625l2.59375 0q-0.8125 -1.421875 -1.921875 -2.453125l1.328125 -0.890625q1.046875 0.96875 1.9375 2.453125l-1.1875 0.890625l2.515625 0l1.78125 -3.71875l1.6406555 0.75q0.296875 0.296875 -0.21878052 0.359375l-1.71875 2.609375l3.2656555 0l0 1.40625l-4.3750305 0l0 2.453125l4.9687805 0l0 1.40625zm2.609375 -0.453125q2.8125 -3.328125 3.328125 -8.234375l1.71875 0.453125q0.296875 0.296875 -0.234375 0.4375q-0.359375 2.15625 -0.953125 3.859375q0.8125 0.078125 0.140625 0.515625l0 11.59375l-1.484375 0l0 -9.359375q-0.515625 1.03125 -1.40625 2.078125l-1.109375 -1.34375zm14.390625 4.15625l-6.609375 0l0 2.15625l6.609375 0l0 -2.15625zm-8.09375 -1.40625l9.578125 0l0 5.640625l-1.484375 0l0 -0.65625l-6.609375 0l0 0.890625l-1.484375 0l0 -5.875zm0.453125 -1.265625l0 -1.40625l8.390625 0l0 1.40625l-8.390625 0zm0 -2.59375l0 -1.40625l8.390625 0l0 1.40625l-8.390625 0zm-1.703125 -3.9375l11.9375 0l0 1.421875l-11.9375 0l0 -1.421875zm1.703125 -2.671875l8.390625 0l0 1.421875l-8.390625 0l0 -1.421875z" fill-rule="nonzero"/><path fill="#f5f5f5" d="m417.38644 372.53317l0 -1.5l4.15625 0l0 1.5l-4.15625 0z" fill-rule="nonzero"/><path fill="#f5f5f5" d="m427.61612 371.90817q2.375 -3.265625 3.125 -9.71875l1.625 0.296875q0.296875 0.296875 -0.21875 0.375l-0.21875 1.265625l3.484375 0l0 1.40625q-0.21875 4.671875 -1.859375 8.15625q1.5625 2.828125 4.828125 2.828125l6.234375 0l-0.296875 1.640625l-5.9375 0q-3.5625 0 -5.5 -3.046875q-1.84375 2.671875 -3.484375 3.859375l-0.96875 -1.40625q2.015625 -1.34375 3.5625 -4.015625q-0.890625 -1.9375 -1.40625 -4.078125q-0.890625 2.140625 -1.859375 3.625l-1.109375 -1.1875zm3.78125 -5.046875q0.375 3.125 1.265625 5.203125q1.109375 -2.671875 1.265625 -6.53125l-2.296875 0l-0.234375 1.328125zm11.359375 6.390625q0.375 0 0.453125 -2.078125l1.40625 0.375q0 3.109375 -1.40625 3.109375l-1.265625 0q-1.265625 0 -1.265625 -1.328125l0 -8.3125l-2.453125 0l0 5.859375q0 2.453125 -1.78125 4.671875l-1.1875 -1.265625q1.484375 -1.25 1.484375 -4.078125l0 -6.609375l5.421875 0l0 9.359375q0 0.296875 0.21875 0.296875l0.375 0zm10.3125 1.265625q-2.890625 1.03125 -5.40625 1.703125q-0.234375 0.59375 -0.453125 0.21875l-0.515625 -1.703125l2.59375 -0.515625l0 -4.09375l-2.0 0l0 -1.40625l2.0 0l0 -3.9375l-2.21875 0l0 -1.40625l5.9375 0l0 1.40625l-2.234375 0l0 3.9375l2.0 0l0 1.40625l-2.0 0l0 3.71875q0.59375 -0.078125 2.15625 -0.59375l0.140625 1.265625zm5.875 -3.5l0 2.15625l4.15625 0l0 1.40625l-4.15625 0l0 2.3125l4.890625 0l0 1.40625l-11.796875 0l0 -1.40625l5.640625 0l0 -2.3125l-4.015625 0l0 -1.40625l4.015625 0l0 -2.15625l-2.671875 0l0 0.96875l-1.265625 0l0 -9.125l9.203125 0l0 8.828125l-1.265625 0l0 -0.671875l-2.734375 0zm2.734375 -3.40625l-2.734375 0l0 2.21875l2.734375 0l0 -2.21875zm0 -3.5625l-2.734375 0l0 2.375l2.734375 0l0 -2.375zm-4.0 2.375l0 -2.375l-2.671875 0l0 2.375l2.671875 0zm0 1.1875l-2.671875 0l0 2.21875l2.671875 0l0 -2.21875zm17.296875 -0.671875q-1.265625 7.421875 -3.046875 9.203125q-0.96875 0.96875 -2.0 0.96875q-1.1875 0 -1.859375 -0.671875q-1.78125 -1.78125 -1.78125 -4.453125q0 -3.265625 2.296875 -5.5625q2.53125 -2.53125 6.15625 -2.53125q3.265625 0 5.125 1.859375q2.078125 2.078125 2.078125 4.90625q0 3.03125 -1.921875 4.96875q-1.265625 1.265625 -3.859375 2.453125l-1.5625 -1.5625q2.59375 -0.8125 4.078125 -2.296875q1.40625 -1.421875 1.40625 -3.421875q0 -2.375 -1.546875 -3.9375q-1.5625 -1.546875 -4.90625 -1.40625l1.34375 0.671875q0.890625 0.375 0 0.8125zm-1.71875 -1.40625q-1.921875 0.4375 -3.328125 1.859375q-1.9375 1.921875 -1.9375 4.75q0 1.703125 1.109375 2.8125q0.234375 0.21875 0.671875 0.21875q0.453125 0 0.96875 -0.515625q1.703125 -1.703125 2.515625 -9.125zm20.640625 1.78125l4.96875 0l0 1.40625l-4.96875 0l0 1.109375l5.484375 0l0 1.421875l-5.484375 0l0 1.1875l7.640625 0l0 1.40625l-7.203125 0q1.640625 2.21875 7.203125 3.40625l-0.515625 1.71875q-5.859375 -1.40625 -7.640625 -4.453125q-1.78125 3.78125 -7.796875 4.671875l-0.59375 -1.5625q5.5625 -0.8125 6.96875 -3.78125l-7.046875 0l0 -1.40625l7.5 0l0 -1.1875l-5.265625 0l0 -1.421875l5.265625 0l0 -1.109375l-4.90625 0l0 -1.40625l4.90625 0l0 -1.484375l1.40625 0q0.59375 0.078125 0.078125 0.4375l0 1.046875zm-8.53125 -3.484375l7.046875 0l0 -1.71875l1.625 0q0.75 0.15625 0.078125 0.59375l0 1.125l6.984375 0l0 4.0l-1.484375 0l0 -2.59375l-12.765625 0l0 2.59375l-1.484375 0l0 -4.0zm24.046875 -0.078125q-2.3125 2.8125 -4.234375 3.9375l-0.890625 -1.34375q2.078125 -1.1875 4.15625 -3.9375l1.109375 0.96875q0.375 0.453125 -0.140625 0.375zm-1.046875 15.21875l-1.484375 0l0 -7.875q-0.734375 0.8125 -2.21875 1.78125l-0.96875 -1.484375q3.1875 -1.921875 5.421875 -5.421875l1.1875 0.96875q0.359375 0.453125 -0.15625 0.375q-0.890625 1.1875 -1.78125 2.296875l0 9.359375zm10.8437805 -15.59375l0 1.40625l-8.0156555 0l0 -1.40625l8.0156555 0zm-8.8437805 6.15625l0 -1.40625l10.3281555 0l0 1.40625l-3.125 0l0 7.578125q0 1.5625 -1.265625 1.5625l-2.0 0l-0.296875 -1.421875l1.78125 0q0.296875 0 0.296875 -0.296875l0 -7.421875l-5.7187805 0z" fill-rule="nonzero"/></g></svg>